<svg xmlns="http://www.w3.org/2000/svg" xmlns:xlink="http://www.w3.org/1999/xlink" width="500" zoomAndPan="magnify" viewBox="0 0 375 374.999991" height="500" preserveAspectRatio="xMidYMid meet" version="1.0"><defs><g/><clipPath id="68f49f41f7"><path d="M 111.757812 51.773438 L 299.257812 51.773438 L 299.257812 230.273438 L 111.757812 230.273438 Z M 111.757812 51.773438 " clip-rule="nonzero"/></clipPath><clipPath id="e76dbe214d"><path d="M 75.742188 97.230469 L 263.242188 97.230469 L 263.242188 275.636719 L 75.742188 275.636719 Z M 75.742188 97.230469 " clip-rule="nonzero"/></clipPath></defs><g clip-path="url(#68f49f41f7)"><path fill="#004aad" d="M 296.023438 111.476562 C 285.882812 74.121094 255.191406 51.820312 213.929688 51.820312 L 111.757812 51.820312 L 113.773438 56.4375 C 122.433594 76.285156 142.027344 89.117188 163.6875 89.125 L 191.507812 89.125 L 191.734375 89.117188 C 192.792969 89.042969 196.699219 88.804688 202.5625 88.804688 C 208.195312 88.804688 213.941406 89.027344 219.609375 89.460938 L 220.167969 89.503906 C 241.871094 91.210938 271.613281 96.886719 289.988281 114.1875 L 290.226562 114.40625 C 290.320312 114.5 290.417969 114.585938 290.511719 114.683594 L 299.257812 123.390625 Z M 298.824219 154.527344 L 298.800781 154.886719 C 293.28125 201.429688 260.410156 230.339844 213.019531 230.339844 L 147.839844 230.339844 L 147.839844 142.222656 L 151.136719 142.222656 C 170.21875 142.222656 185.746094 157.746094 185.746094 176.832031 L 185.746094 192.433594 L 214.613281 192.433594 C 228.832031 192.433594 240.804688 187.765625 249.242188 178.929688 C 257.828125 169.9375 262.367188 156.941406 262.367188 141.347656 L 262.367188 140.8125 C 262.367188 128.738281 259.710938 118.328125 254.472656 109.863281 L 249.582031 101.964844 L 258.359375 105.011719 C 269.25 108.789062 278.082031 113.820312 284.613281 119.972656 C 294.15625 128.960938 298.9375 140.585938 298.824219 154.527344 " fill-opacity="1" fill-rule="nonzero"/></g><g clip-path="url(#e76dbe214d)"><path fill="#38b6ff" d="M 78.976562 216.027344 C 89.117188 253.382812 119.808594 275.683594 161.070312 275.683594 L 263.242188 275.683594 L 261.226562 271.066406 C 252.566406 251.21875 232.972656 238.386719 211.3125 238.378906 L 183.492188 238.378906 L 183.265625 238.386719 C 182.207031 238.460938 178.300781 238.699219 172.4375 238.699219 C 166.804688 238.699219 161.058594 238.476562 155.390625 238.042969 L 154.832031 238 C 133.128906 236.292969 103.386719 230.617188 85.011719 213.316406 L 84.773438 213.09375 C 84.679688 213.003906 84.582031 212.917969 84.488281 212.820312 L 75.742188 204.113281 Z M 76.175781 172.972656 L 76.199219 172.617188 C 81.71875 126.070312 114.589844 97.160156 161.980469 97.160156 L 227.160156 97.160156 L 227.160156 185.28125 L 223.863281 185.28125 C 204.78125 185.28125 189.253906 169.753906 189.253906 150.671875 L 189.253906 135.070312 L 160.386719 135.070312 C 146.167969 135.070312 134.195312 139.738281 125.757812 148.574219 C 117.171875 157.566406 112.632812 170.5625 112.632812 186.15625 L 112.632812 186.691406 C 112.632812 198.765625 115.289062 209.175781 120.527344 217.636719 L 125.417969 225.539062 L 116.640625 222.492188 C 105.75 218.714844 96.917969 213.679688 90.386719 207.53125 C 80.84375 198.542969 76.0625 186.917969 76.175781 172.972656 " fill-opacity="1" fill-rule="nonzero"/></g><g fill="#000000" fill-opacity="1"><g transform="translate(113.001757, 315.855732)"><g><path d="M 8.15625 -18.75 C 10.144531 -18.75 11.890625 -18.363281 13.390625 -17.59375 C 14.898438 -16.832031 16.0625 -15.738281 16.875 -14.3125 C 17.695312 -12.882812 18.109375 -11.21875 18.109375 -9.3125 C 18.109375 -7.40625 17.695312 -5.75 16.875 -4.34375 C 16.0625 -2.9375 14.898438 -1.859375 13.390625 -1.109375 C 11.890625 -0.367188 10.144531 0 8.15625 0 L 2.03125 0 L 2.03125 -18.75 Z M 8.15625 -2.515625 C 10.34375 -2.515625 12.019531 -3.109375 13.1875 -4.296875 C 14.363281 -5.484375 14.953125 -7.15625 14.953125 -9.3125 C 14.953125 -11.488281 14.363281 -13.1875 13.1875 -14.40625 C 12.019531 -15.632812 10.34375 -16.25 8.15625 -16.25 L 5.09375 -16.25 L 5.09375 -2.515625 Z M 8.15625 -2.515625 "/></g></g></g><g fill="#000000" fill-opacity="1"><g transform="translate(132.133659, 315.855732)"><g><path d="M 3.59375 -16.84375 C 3.03125 -16.84375 2.5625 -17.03125 2.1875 -17.40625 C 1.8125 -17.78125 1.625 -18.25 1.625 -18.8125 C 1.625 -19.363281 1.8125 -19.828125 2.1875 -20.203125 C 2.5625 -20.585938 3.03125 -20.78125 3.59375 -20.78125 C 4.132812 -20.78125 4.59375 -20.585938 4.96875 -20.203125 C 5.34375 -19.828125 5.53125 -19.363281 5.53125 -18.8125 C 5.53125 -18.25 5.34375 -17.78125 4.96875 -17.40625 C 4.59375 -17.03125 4.132812 -16.84375 3.59375 -16.84375 Z M 5.09375 -14.875 L 5.09375 0 L 2.03125 0 L 2.03125 -14.875 Z M 5.09375 -14.875 "/></g></g></g><g fill="#000000" fill-opacity="1"><g transform="translate(139.257529, 315.855732)"><g><path d="M 8.015625 -15.109375 C 9.160156 -15.109375 10.175781 -14.878906 11.0625 -14.421875 C 11.957031 -13.960938 12.660156 -13.390625 13.171875 -12.703125 L 13.171875 -14.875 L 16.265625 -14.875 L 16.265625 0.25 C 16.265625 1.613281 15.976562 2.828125 15.40625 3.890625 C 14.832031 4.960938 14 5.804688 12.90625 6.421875 C 11.820312 7.035156 10.523438 7.34375 9.015625 7.34375 C 6.992188 7.34375 5.316406 6.867188 3.984375 5.921875 C 2.660156 4.972656 1.910156 3.691406 1.734375 2.078125 L 4.78125 2.078125 C 5.007812 2.847656 5.503906 3.472656 6.265625 3.953125 C 7.035156 4.429688 7.953125 4.671875 9.015625 4.671875 C 10.253906 4.671875 11.253906 4.289062 12.015625 3.53125 C 12.785156 2.78125 13.171875 1.6875 13.171875 0.25 L 13.171875 -2.234375 C 12.648438 -1.535156 11.941406 -0.945312 11.046875 -0.46875 C 10.160156 0.0078125 9.148438 0.25 8.015625 0.25 C 6.722656 0.25 5.539062 -0.078125 4.46875 -0.734375 C 3.394531 -1.398438 2.546875 -2.320312 1.921875 -3.5 C 1.304688 -4.675781 1 -6.007812 1 -7.5 C 1 -8.988281 1.304688 -10.3125 1.921875 -11.46875 C 2.546875 -12.625 3.394531 -13.519531 4.46875 -14.15625 C 5.539062 -14.789062 6.722656 -15.109375 8.015625 -15.109375 Z M 13.171875 -7.453125 C 13.171875 -8.472656 12.957031 -9.359375 12.53125 -10.109375 C 12.113281 -10.867188 11.5625 -11.445312 10.875 -11.84375 C 10.1875 -12.238281 9.445312 -12.4375 8.65625 -12.4375 C 7.863281 -12.4375 7.125 -12.242188 6.4375 -11.859375 C 5.757812 -11.472656 5.207031 -10.90625 4.78125 -10.15625 C 4.363281 -9.414062 4.15625 -8.53125 4.15625 -7.5 C 4.15625 -6.476562 4.363281 -5.578125 4.78125 -4.796875 C 5.207031 -4.023438 5.765625 -3.4375 6.453125 -3.03125 C 7.148438 -2.625 7.882812 -2.421875 8.65625 -2.421875 C 9.445312 -2.421875 10.1875 -2.617188 10.875 -3.015625 C 11.5625 -3.410156 12.113281 -3.988281 12.53125 -4.75 C 12.957031 -5.519531 13.171875 -6.421875 13.171875 -7.453125 Z M 13.171875 -7.453125 "/></g></g></g><g fill="#000000" fill-opacity="1"><g transform="translate(157.552922, 315.855732)"><g><path d="M 3.59375 -16.84375 C 3.03125 -16.84375 2.5625 -17.03125 2.1875 -17.40625 C 1.8125 -17.78125 1.625 -18.25 1.625 -18.8125 C 1.625 -19.363281 1.8125 -19.828125 2.1875 -20.203125 C 2.5625 -20.585938 3.03125 -20.78125 3.59375 -20.78125 C 4.132812 -20.78125 4.59375 -20.585938 4.96875 -20.203125 C 5.34375 -19.828125 5.53125 -19.363281 5.53125 -18.8125 C 5.53125 -18.25 5.34375 -17.78125 4.96875 -17.40625 C 4.59375 -17.03125 4.132812 -16.84375 3.59375 -16.84375 Z M 5.09375 -14.875 L 5.09375 0 L 2.03125 0 L 2.03125 -14.875 Z M 5.09375 -14.875 "/></g></g></g><g fill="#000000" fill-opacity="1"><g transform="translate(164.676792, 315.855732)"><g><path d="M 5.609375 -12.359375 L 5.609375 -4.125 C 5.609375 -3.570312 5.738281 -3.171875 6 -2.921875 C 6.257812 -2.679688 6.707031 -2.5625 7.34375 -2.5625 L 9.234375 -2.5625 L 9.234375 0 L 6.796875 0 C 5.410156 0 4.347656 -0.320312 3.609375 -0.96875 C 2.878906 -1.613281 2.515625 -2.664062 2.515625 -4.125 L 2.515625 -12.359375 L 0.75 -12.359375 L 0.75 -14.875 L 2.515625 -14.875 L 2.515625 -18.5625 L 5.609375 -18.5625 L 5.609375 -14.875 L 9.234375 -14.875 L 9.234375 -12.359375 Z M 5.609375 -12.359375 "/></g></g></g><g fill="#000000" fill-opacity="1"><g transform="translate(174.714973, 315.855732)"><g><path d="M 1 -7.5 C 1 -8.988281 1.304688 -10.3125 1.921875 -11.46875 C 2.546875 -12.625 3.394531 -13.519531 4.46875 -14.15625 C 5.539062 -14.789062 6.722656 -15.109375 8.015625 -15.109375 C 9.179688 -15.109375 10.203125 -14.878906 11.078125 -14.421875 C 11.953125 -13.960938 12.648438 -13.390625 13.171875 -12.703125 L 13.171875 -14.875 L 16.265625 -14.875 L 16.265625 0 L 13.171875 0 L 13.171875 -2.21875 C 12.648438 -1.507812 11.9375 -0.921875 11.03125 -0.453125 C 10.132812 0.015625 9.109375 0.25 7.953125 0.25 C 6.679688 0.25 5.515625 -0.078125 4.453125 -0.734375 C 3.390625 -1.398438 2.546875 -2.320312 1.921875 -3.5 C 1.304688 -4.675781 1 -6.007812 1 -7.5 Z M 13.171875 -7.453125 C 13.171875 -8.472656 12.957031 -9.359375 12.53125 -10.109375 C 12.113281 -10.867188 11.5625 -11.445312 10.875 -11.84375 C 10.1875 -12.238281 9.445312 -12.4375 8.65625 -12.4375 C 7.863281 -12.4375 7.125 -12.242188 6.4375 -11.859375 C 5.757812 -11.472656 5.207031 -10.90625 4.78125 -10.15625 C 4.363281 -9.414062 4.15625 -8.53125 4.15625 -7.5 C 4.15625 -6.476562 4.363281 -5.578125 4.78125 -4.796875 C 5.207031 -4.023438 5.765625 -3.4375 6.453125 -3.03125 C 7.148438 -2.625 7.882812 -2.421875 8.65625 -2.421875 C 9.445312 -2.421875 10.1875 -2.617188 10.875 -3.015625 C 11.5625 -3.410156 12.113281 -3.988281 12.53125 -4.75 C 12.957031 -5.519531 13.171875 -6.421875 13.171875 -7.453125 Z M 13.171875 -7.453125 "/></g></g></g><g fill="#000000" fill-opacity="1"><g transform="translate(193.010366, 315.855732)"><g><path d="M 5.09375 -19.96875 L 5.09375 0 L 2.03125 0 L 2.03125 -19.96875 Z M 5.09375 -19.96875 "/></g></g></g><g fill="#000000" fill-opacity="1"><g transform="translate(200.134236, 315.855732)"><g/></g></g><g fill="#000000" fill-opacity="1"><g transform="translate(207.150163, 315.855732)"><g><path d="M 17 -18.75 L 17 0 L 13.921875 0 L 13.921875 -8.203125 L 5.09375 -8.203125 L 5.09375 0 L 2.03125 0 L 2.03125 -18.75 L 5.09375 -18.75 L 5.09375 -10.71875 L 13.921875 -10.71875 L 13.921875 -18.75 Z M 17 -18.75 "/></g></g></g><g fill="#000000" fill-opacity="1"><g transform="translate(226.174131, 315.855732)"><g><path d="M 15.484375 -14.875 L 15.484375 0 L 12.40625 0 L 12.40625 -1.75 C 11.925781 -1.144531 11.296875 -0.664062 10.515625 -0.3125 C 9.734375 0.0390625 8.898438 0.21875 8.015625 0.21875 C 6.847656 0.21875 5.800781 -0.0195312 4.875 -0.5 C 3.945312 -0.988281 3.21875 -1.710938 2.6875 -2.671875 C 2.15625 -3.628906 1.890625 -4.78125 1.890625 -6.125 L 1.890625 -14.875 L 4.9375 -14.875 L 4.9375 -6.578125 C 4.9375 -5.253906 5.269531 -4.234375 5.9375 -3.515625 C 6.601562 -2.804688 7.507812 -2.453125 8.65625 -2.453125 C 9.8125 -2.453125 10.722656 -2.804688 11.390625 -3.515625 C 12.066406 -4.234375 12.40625 -5.253906 12.40625 -6.578125 L 12.40625 -14.875 Z M 15.484375 -14.875 "/></g></g></g><g fill="#000000" fill-opacity="1"><g transform="translate(243.686977, 315.855732)"><g><path d="M 5.09375 -12.65625 C 5.613281 -13.375 6.328125 -13.960938 7.234375 -14.421875 C 8.148438 -14.878906 9.164062 -15.109375 10.28125 -15.109375 C 11.59375 -15.109375 12.78125 -14.789062 13.84375 -14.15625 C 14.90625 -13.53125 15.738281 -12.632812 16.34375 -11.46875 C 16.957031 -10.3125 17.265625 -8.988281 17.265625 -7.5 C 17.265625 -6.007812 16.957031 -4.675781 16.34375 -3.5 C 15.738281 -2.320312 14.898438 -1.398438 13.828125 -0.734375 C 12.753906 -0.078125 11.570312 0.25 10.28125 0.25 C 9.125 0.25 8.097656 0.0234375 7.203125 -0.421875 C 6.316406 -0.878906 5.613281 -1.457031 5.09375 -2.15625 L 5.09375 0 L 2.03125 0 L 2.03125 -19.96875 L 5.09375 -19.96875 Z M 14.140625 -7.5 C 14.140625 -8.53125 13.925781 -9.414062 13.5 -10.15625 C 13.082031 -10.90625 12.523438 -11.472656 11.828125 -11.859375 C 11.140625 -12.242188 10.398438 -12.4375 9.609375 -12.4375 C 8.835938 -12.4375 8.101562 -12.238281 7.40625 -11.84375 C 6.71875 -11.445312 6.160156 -10.867188 5.734375 -10.109375 C 5.304688 -9.359375 5.09375 -8.472656 5.09375 -7.453125 C 5.09375 -6.421875 5.304688 -5.519531 5.734375 -4.75 C 6.160156 -3.988281 6.71875 -3.410156 7.40625 -3.015625 C 8.101562 -2.617188 8.835938 -2.421875 9.609375 -2.421875 C 10.398438 -2.421875 11.140625 -2.625 11.828125 -3.03125 C 12.523438 -3.4375 13.082031 -4.023438 13.5 -4.796875 C 13.925781 -5.578125 14.140625 -6.476562 14.140625 -7.5 Z M 14.140625 -7.5 "/></g></g></g></svg>