<svg xmlns="http://www.w3.org/2000/svg" xmlns:xlink="http://www.w3.org/1999/xlink" width="500" zoomAndPan="magnify" viewBox="0 0 375 374.999991" height="500" preserveAspectRatio="xMidYMid meet" version="1.0"><defs><clipPath id="2593cb0a13"><path d="M 69.558594 13.132812 L 361.308594 13.132812 L 361.308594 291.382812 L 69.558594 291.382812 Z M 69.558594 13.132812 " clip-rule="nonzero"/></clipPath><clipPath id="de54f130e9"><path d="M 13.6875 83.769531 L 305.226562 83.769531 L 305.226562 361.867188 L 13.6875 361.867188 Z M 13.6875 83.769531 " clip-rule="nonzero"/></clipPath></defs><g clip-path="url(#2593cb0a13)"><path fill="#004aad" d="M 356.484375 106.097656 C 340.6875 47.933594 292.902344 13.203125 228.652344 13.203125 L 69.558594 13.203125 L 72.699219 20.398438 C 86.179688 51.304688 116.6875 71.285156 150.417969 71.292969 L 193.738281 71.292969 L 194.09375 71.285156 C 195.738281 71.164062 201.824219 70.796875 210.949219 70.796875 C 219.722656 70.796875 228.667969 71.140625 237.496094 71.820312 L 238.363281 71.886719 C 272.160156 74.542969 318.46875 83.378906 347.085938 110.320312 L 347.453125 110.664062 C 347.601562 110.804688 347.753906 110.941406 347.894531 111.089844 L 361.515625 124.652344 Z M 360.84375 173.136719 L 360.804688 173.695312 C 352.210938 246.167969 301.03125 291.1875 227.234375 291.1875 L 125.738281 291.1875 L 125.738281 153.976562 L 130.875 153.976562 C 160.589844 153.976562 184.761719 178.148438 184.761719 207.863281 L 184.761719 232.15625 L 229.714844 232.15625 C 251.855469 232.15625 270.496094 224.886719 283.636719 211.128906 C 297.007812 197.128906 304.070312 176.894531 304.070312 152.613281 L 304.070312 151.78125 C 304.070312 132.976562 299.9375 116.769531 291.78125 103.589844 L 284.167969 91.289062 L 297.835938 96.03125 C 314.789062 101.914062 328.546875 109.75 338.714844 119.332031 C 353.574219 133.324219 361.015625 151.425781 360.84375 173.136719 " fill-opacity="1" fill-rule="nonzero"/></g><g clip-path="url(#de54f130e9)"><path fill="#38b6ff" d="M 18.507812 268.898438 C 34.304688 327.066406 82.089844 361.792969 146.339844 361.792969 L 305.433594 361.792969 L 302.296875 354.601562 C 288.8125 323.695312 258.304688 303.714844 224.578125 303.703125 L 181.253906 303.703125 L 180.898438 303.714844 C 179.253906 303.832031 173.167969 304.203125 164.042969 304.203125 C 155.269531 304.203125 146.324219 303.855469 137.496094 303.179688 L 136.628906 303.113281 C 102.832031 300.453125 56.523438 291.617188 27.90625 264.675781 L 27.539062 264.335938 C 27.390625 264.191406 27.238281 264.054688 27.097656 263.90625 L 13.476562 250.34375 Z M 14.152344 201.859375 L 14.1875 201.304688 C 22.78125 128.828125 73.960938 83.8125 147.757812 83.8125 L 249.253906 83.8125 L 249.253906 221.023438 L 244.117188 221.023438 C 214.402344 221.023438 190.230469 196.847656 190.230469 167.132812 L 190.230469 142.839844 L 145.277344 142.839844 C 123.136719 142.839844 104.496094 150.109375 91.355469 163.867188 C 77.988281 177.867188 70.921875 198.105469 70.921875 222.382812 L 70.921875 223.21875 C 70.921875 242.019531 75.054688 258.230469 83.210938 271.410156 L 90.824219 283.707031 L 77.160156 278.964844 C 60.203125 273.082031 46.445312 265.246094 36.277344 255.667969 C 21.421875 241.671875 13.976562 223.574219 14.152344 201.859375 " fill-opacity="1" fill-rule="nonzero"/></g></svg>